# xmcd
#
# Track frame offsets:
#	150
#	15370
#	32036
#	44875
#	61261
#	78504
#	91506
#	107385
#	124683
#	140695
#	160915
#	173081
#	189000
#	200949
#	222585
#	235669
#	250597
#	268576
#	288154
#	300117
#	314295
#
# Disc length: 4417 seconds
#
# Revision: 0
# Processed by: cddbd v1.5.2PL0 Copyright (c) Steve Scherf et al.
# Submitted via: dBpowerAMP V4.0
#
DISCID=13113f15
DTITLE=Various Artist - Country Tuis Vol 1
DYEAR=2007
DGENRE=Country
TTITLE0=Rhinestone Cowboy - Steve Hofmeyr
TTITLE1=The Gambler - Theuns Jordaan
TTITLE2=Tulsa Time - Dozi
TTITLE3=To Make You Feel My Love - Coleske
TTITLE4=Any Man Of Mine - Anke
TTITLE5=You Are My Best Friend - Mathys Roets
TTITLE6=Loving Arms - Nianell
TTITLE7=Somebody Like You - Thean
TTITLE8=Queen Of Hearts - Nadine
TTITLE9=You'll Think Of Me - Guillaume
TTITLE10=Let Your Love Flow - Kurt Darren
TTITLE11=You Light Up My Life - Karin
TTITLE12=Arms Of Mary - Nicholis Louw
TTITLE13=Back Home Again - Juanita Du Plessis
TTITLE14=It Must Be Love - Christo and Cobus
TTITLE15=Moonlight Stranger - Patricia Lewis
TTITLE16=Amazed - Eden
TTITLE17=Rock This Country - Nadine
TTITLE18=On The Wings Of A Nightingale - Christo and Cobus
TTITLE19=Jolene - Lianie May
TTITLE20=Simply A Song - Coleske
EXTD=
EXTT0=
EXTT1=
EXTT2=
EXTT3=
EXTT4=
EXTT5=
EXTT6=
EXTT7=
EXTT8=
EXTT9=
EXTT10=
EXTT11=
EXTT12=
EXTT13=
EXTT14=
EXTT15=
EXTT16=
EXTT17=
EXTT18=
EXTT19=
EXTT20=
PLAYORDER=
